<svg width="264" height="50" viewBox="0 0 264 50" fill="none" xmlns="http://www.w3.org/2000/svg">
<g clip-path="url(#clip0_7552_74209)">
<path d="M70.6388 5.09058C56.9052 5.09058 46.8139 14.7849 46.8139 27.5962C46.8139 38.4227 53.9868 45 65.3133 45C79.047 45 89.1383 35.3057 89.1383 22.4943C89.1383 11.6642 81.9654 5.09058 70.6388 5.09058ZM66.041 37.1736C59.7079 37.1736 55.7259 33.3208 55.7259 27.083C55.7259 19.434 61.6709 12.9132 69.9111 12.9132C76.2443 12.9132 80.2263 16.766 80.2263 23.0038C80.2263 30.6566 74.285 37.1736 66.041 37.1736Z" fill="black"/>
<path d="M105.231 37.9698C100.353 37.9698 97.5501 35.7019 97.5501 31.2792C97.5501 25.8943 101.644 21.9811 107.585 21.9811C110.19 21.9811 114.053 22.6491 116.106 24.083L117.262 16.7094C114.867 15.5208 110.829 14.9547 107.529 14.9547C96.7664 14.9547 88.9741 21.7547 88.9741 31.7887C88.9741 40.2943 94.5795 45 104.167 45C108.201 45 112.239 44.1472 115.882 42.0491L114.09 35.3057C111.232 37.0038 108.369 37.9698 105.231 37.9698Z" fill="black"/>
<path d="M127.607 22.0415H137.531L138.538 15.634H128.615L130.186 5.76981L121.532 7.32452L120.207 15.634L119.199 22.0415L117.068 35.7019C116.956 36.3811 116.9 37.0604 116.9 37.6868C116.9 42.4453 120.207 45 126.936 45C129.794 45 132.597 44.5434 135.12 43.3547L134.448 36.6641C132.653 37.517 130.914 37.9698 129.123 37.9698C126.768 37.9698 125.588 37.2302 125.588 35.4755C125.588 35.0792 125.644 34.566 125.7 34.2264L127.607 22.0415Z" fill="black"/>
<path d="M154.911 14.9547C144.427 14.9547 136.635 21.9811 136.635 31.7321C136.635 39.9547 142.241 45 151.1 45C161.583 45 169.376 37.9698 169.376 28.2189C169.376 20 163.77 14.9547 154.911 14.9547ZM151.66 37.9698C147.622 37.9698 145.211 35.6453 145.211 31.4491C145.211 26.4038 148.745 21.9811 154.351 21.9811C158.389 21.9811 160.8 24.3057 160.8 28.5019C160.8 33.5472 157.265 37.9698 151.66 37.9698Z" fill="black"/>
<path d="M202.699 24.649C207.237 23.2868 210.043 20.283 210.043 15.0679C210.043 8.83018 206.061 5.76981 197.765 5.76981H175.283L169.226 44.317H193.167C202.363 44.317 208.528 40.3509 208.528 32.7547C208.528 28.5585 206.677 25.8943 202.699 24.649ZM195.522 21.1321H183.856L186.278 28.7283H195.074C198.325 28.7283 199.724 29.7509 199.724 32.0717C199.724 34.966 197.485 36.7207 193.951 36.7207H179.15L180.441 28.7283L181.617 21.1321L182.852 13.366H196.809C199.896 13.366 201.183 14.3887 201.183 16.5962C201.183 19.4906 199.052 21.1321 195.522 21.1321Z" fill="#40A86D"/>
<path d="M241.608 27.483C241.608 19.8302 236.451 14.9547 227.815 14.9547C217.276 14.9547 209.483 22.1547 209.483 31.9585C209.483 40.5208 215.369 45 225.46 45C230.17 45 234.543 44.034 238.41 41.766L236.674 35.1358C233.308 37.0604 229.946 38.083 226.244 38.083C221.254 38.083 218.395 36.2679 218.003 32.3585H241.045C241.38 30.9396 241.608 29.0679 241.608 27.483ZM218.955 26.9132C220.358 23.9094 223.329 21.6981 227.311 21.6981C231.009 21.6981 233.308 23.5698 233.756 26.9132H218.955Z" fill="#40A86D"/>
<path d="M253.069 22.0415H262.992L264 15.634H254.077L255.648 5.76981L246.993 7.32452L245.669 15.634L244.661 22.0415L242.53 35.7019C242.418 36.3811 242.362 37.0604 242.362 37.6868C242.362 42.4453 245.669 45 252.397 45C255.256 45 258.059 44.5434 260.582 43.3547L259.91 36.6641C258.115 37.517 256.376 37.9698 254.58 37.9698C252.229 37.9698 251.05 37.2302 251.05 35.4755C251.05 35.0792 251.106 34.566 251.162 34.2264L253.069 22.0415Z" fill="#40A86D"/>
<path d="M35.0954 32.5509C29.9938 41.9736 16.7901 43.234 9.81877 36.0377C0.817247 26.5132 8.78875 13.9321 19.9511 14.9472C25.2766 15.283 31.4904 19.717 30.9492 26.1396H42.8654C42.746 22.7736 41.8391 19.4642 40.3725 16.6717C36.3046 8.72075 27.6987 4.52075 19.9511 5.04151C9.84117 5.36981 -0.522532 14.1887 0.0186046 26.1396C0.216399 31.6792 3.06017 36.8264 7.03472 39.9132C14.4912 45.7925 25.2244 45.2302 31.9419 38.6226C35.129 35.5094 37.1928 30.8453 36.9055 26.1396C36.786 28.434 36.1367 30.6453 35.0954 32.5509Z" fill="#40A86D"/>
</g>
<defs>
<clipPath id="clip0_7552_74209">
<rect width="264" height="40" fill="white" transform="translate(0 5)"/>
</clipPath>
</defs>
</svg>
